<svg width="500" height="500" viewBox="0 0 500 500" fill="none" xmlns="http://www.w3.org/2000/svg">
<path d="M7.8125 249.648V493.789H496.094V5.50781H7.8125V249.648ZM401.289 230.117C412.984 232.831 423.613 238.948 431.836 247.695C436.363 252.408 440.298 257.655 443.555 263.32C443.555 263.945 422.461 278.203 409.609 286.172C409.141 286.484 407.266 284.453 405.195 281.367C402.849 277.319 399.516 273.931 395.506 271.52C391.496 269.109 386.941 267.753 382.266 267.578C367.461 266.562 357.93 274.336 358.008 287.109C357.885 290.29 358.614 293.445 360.117 296.25C363.359 303.008 369.414 307.031 388.398 315.234C423.359 330.273 438.32 340.195 447.617 354.297C458.008 369.922 460.313 395.156 453.281 413.828C445.469 434.141 426.328 447.93 399.258 452.5C386.894 453.916 374.402 453.785 362.07 452.109C343.251 449.056 325.89 440.096 312.5 426.523C308.008 421.562 299.258 408.633 299.805 407.695C301.231 406.637 302.732 405.684 304.297 404.844L322.266 394.531L336.289 386.406L339.219 390.742C344.163 397.815 350.455 403.842 357.734 408.477C373.359 416.68 394.687 415.547 405.234 406.055C408.775 402.576 410.985 397.966 411.477 393.027C411.97 388.088 410.714 383.132 407.93 379.023C404.023 373.594 396.211 369.023 374.375 359.492C349.18 348.633 338.32 341.914 328.398 331.211C322.204 324.148 317.631 315.815 315 306.797C313.037 296.494 312.747 285.942 314.141 275.547C319.336 251.211 337.578 234.219 364.219 229.18C376.556 227.653 389.054 227.996 401.289 230.195V230.117ZM286.68 250.586V270.586H223.281V451.172H178.32V270.547H114.766V251.016C114.595 244.292 114.778 237.564 115.313 230.859C115.547 230.547 154.375 230.391 201.25 230.469H286.445L286.68 250.586Z" fill="#007ACC"/>
</svg>
