<svg width="500" height="500" viewBox="0 0 500 500" fill="none" xmlns="http://www.w3.org/2000/svg">
<path d="M335.889 297.168C338.358 276.614 337.62 273.598 352.928 276.926L356.815 277.27C368.588 277.805 383.991 275.375 393.034 271.172C412.51 262.137 424.057 247.043 404.854 251.008C361.045 260.043 358.034 245.215 358.034 245.215C404.295 176.578 423.635 89.4535 406.944 68.1253C361.42 9.95347 282.616 37.4613 281.295 38.1761L280.874 38.2582C272.217 36.4574 262.534 35.3871 251.651 35.2113C231.827 34.8871 216.784 40.4105 205.374 49.0628C205.374 49.0628 64.7916 -8.85513 71.3306 121.899C72.7212 149.715 111.202 332.375 157.096 277.203C173.87 257.032 190.081 239.973 190.081 239.973C198.131 245.321 207.768 248.047 217.877 247.067L218.659 246.403C218.417 248.907 218.522 251.356 218.975 254.254C207.151 267.469 210.627 269.789 186.987 274.653C163.073 279.582 177.124 288.356 186.292 290.649C197.417 293.434 223.139 297.375 240.526 273.036L239.835 275.813C244.475 279.524 244.159 302.481 244.815 318.883C245.471 335.286 246.573 350.59 249.917 359.621C253.26 368.645 257.206 391.891 288.272 385.235C314.233 379.664 334.081 371.657 335.889 297.168Z" fill="black"/>
<path d="M278.154 401.445C264.412 401.445 255.467 396.132 250.029 390.999C241.826 383.261 238.572 373.289 236.631 367.332L235.791 364.843C231.877 354.277 230.553 339.066 229.767 319.48C229.65 316.542 229.564 313.507 229.474 310.292C229.408 307.945 229.326 304.999 229.209 301.91C224.326 304.249 219.099 305.902 213.595 306.847C203.908 308.503 193.494 307.964 182.635 305.249C174.974 303.335 167.013 299.367 162.478 293.234C149.256 304.816 136.642 303.242 129.771 300.953C117.65 296.91 106.803 285.554 96.6033 266.226C89.3416 252.464 82.3142 234.527 75.7166 212.921C64.2322 175.292 56.9353 135.66 56.2869 122.652C54.2478 81.9214 65.2088 52.7964 88.865 36.0893C126.189 9.72605 182.732 25.226 203.345 32.2651C217.193 23.9175 233.486 19.851 251.9 20.1479C261.791 20.3081 271.205 21.1792 279.951 22.7339C289.072 19.8667 307.095 15.7495 327.724 16.0034C365.732 16.4565 397.228 31.269 418.803 58.8393C434.197 78.5112 426.588 119.816 420.678 142.691C412.369 174.859 397.803 209.082 379.912 238.871C384.771 238.906 391.806 238.32 401.814 236.257C421.556 232.179 427.326 242.765 428.892 247.503C435.17 266.515 407.885 280.878 399.373 284.828C388.467 289.894 370.689 292.976 356.127 292.308L355.49 292.265L351.666 291.929L351.287 295.117L350.924 298.238C349.947 335.988 344.553 359.894 333.455 375.695C321.826 392.253 305.658 396.898 291.42 399.949C286.572 400.992 282.158 401.445 278.154 401.445ZM249.24 264.046C258.111 271.144 258.888 284.499 259.58 309.46C259.666 312.574 259.748 315.523 259.857 318.277C260.193 326.613 260.978 346.136 264.033 354.386C264.467 355.55 264.853 356.738 265.26 357.988C268.666 368.425 270.377 373.656 285.107 370.499C297.478 367.851 303.834 365.472 308.81 358.386C316.045 348.082 320.092 327.367 320.834 296.796L335.881 297.164L320.935 295.371L321.373 291.64C322.806 279.343 323.838 270.453 332.06 264.578C338.654 259.863 346.174 260.32 352.162 261.398C345.584 256.433 343.763 250.597 343.279 248.207L342.025 242.027L345.549 236.792C365.861 206.652 382.615 169.609 391.513 135.16C400.654 99.7612 397.865 80.9604 395.08 77.4057C358.181 30.2534 294.185 49.7182 287.506 51.9331L286.373 52.5425L280.709 53.601L277.806 52.9995C269.81 51.3393 260.928 50.4214 251.4 50.2651C236.435 50.0151 224.365 53.5503 214.467 61.062L207.599 66.269L199.627 62.9839C182.603 56.0229 132.588 42.0268 106.197 60.7182C91.5486 71.0932 84.8767 91.4253 86.3611 121.148C86.8494 130.96 93.5213 168.105 104.513 204.136C119.713 253.925 133.525 270.46 139.291 272.386C140.295 272.726 142.908 270.695 145.506 267.578C162.404 247.253 178.474 230.312 179.15 229.597L187.865 220.429L198.4 227.429C202.646 230.253 207.33 231.851 212.142 232.152L237.271 210.722L233.631 247.871C233.549 248.707 233.51 249.839 233.838 251.949L234.931 258.992L230.193 264.296L229.646 264.91L243.451 271.285L249.24 264.046Z" fill="black"/>
<path d="M404.87 251.008C361.057 260.043 358.045 245.211 358.045 245.211C404.303 176.574 423.639 89.4456 406.952 68.1214C361.424 9.9495 282.62 37.4612 281.303 38.1761L280.877 38.2503C272.221 36.4573 262.538 35.387 251.651 35.2112C231.827 34.887 216.788 40.4065 205.377 49.0589C205.377 49.0589 64.7916 -8.85519 71.3306 121.899C72.7212 149.715 111.202 332.375 157.096 277.203C173.87 257.032 190.077 239.973 190.077 239.973C198.127 245.321 207.764 248.047 217.87 247.067L218.655 246.403C218.413 248.907 218.522 251.356 218.967 254.254C207.147 267.469 210.616 269.789 186.983 274.653C163.065 279.582 177.116 288.356 186.292 290.649C197.413 293.434 223.139 297.375 240.522 273.035L239.827 275.813C244.46 279.524 247.713 299.95 247.167 318.465C246.62 336.981 246.256 349.692 249.909 359.621C253.561 369.547 257.198 391.891 288.268 385.235C314.229 379.668 327.682 365.25 329.557 341.203C330.885 324.106 333.889 326.633 334.081 311.344L336.495 304.106C339.272 280.926 336.936 273.449 352.932 276.93L356.819 277.27C368.592 277.809 383.999 275.375 393.042 271.172C412.518 262.133 424.069 247.043 404.87 251.008Z" fill="#336791"/>
<path d="M279.73 392.164C253.828 392.167 245.625 371.656 242.266 363.269C237.355 350.98 236.293 303.277 237.387 264.156C237.465 261.382 239.758 259.191 242.547 259.277C245.316 259.355 247.5 261.664 247.426 264.437C246.164 309.558 247.957 350.445 251.59 359.539C257.266 373.726 265.871 386.136 290.211 380.925C313.316 375.968 321.969 367.207 325.82 344.871C328.781 327.726 334.625 278.957 335.344 269.332C335.551 266.566 337.949 264.488 340.723 264.699C343.488 264.906 345.562 267.316 345.355 270.078C344.605 280.093 338.785 328.773 335.711 346.578C331.16 372.964 319.398 384.933 292.312 390.742C287.715 391.722 283.531 392.164 279.73 392.164ZM139.297 291.988C136.824 291.992 134.582 291.539 132.641 290.89C115.816 285.277 99.7929 257.878 85.0117 209.449C73.7617 172.582 66.6328 134.105 66.0078 121.601C64.1523 84.5308 73.7031 58.3003 94.3867 43.6441C135.309 14.648 204.152 42.2613 207.062 43.4488C209.629 44.4995 210.859 47.4292 209.809 49.9956C208.762 52.5581 205.828 53.7925 203.266 52.7417V52.7456C202.602 52.4722 136.586 26.0269 100.172 51.8511C82.4843 64.3941 74.3632 87.6909 76.0312 121.105C76.5586 131.636 83.2187 169.195 94.6132 206.523C107.809 249.753 122.828 277.039 135.816 281.367C137.852 282.05 144.055 284.117 152.93 273.453C169.617 253.375 184.949 237.351 185.102 237.191C187.019 235.187 190.199 235.125 192.199 237.039C194.199 238.957 194.27 242.136 192.352 244.136C192.199 244.292 177.102 260.078 160.648 279.871C152.855 289.238 145.383 291.988 139.297 291.988ZM357.734 249.687C356.769 249.687 355.793 249.41 354.934 248.828C352.633 247.281 352.023 244.16 353.574 241.859C400.336 172.468 416.75 88.6284 402.691 70.6675C384.996 48.0581 360.008 36.2456 328.426 35.5698C305.039 35.062 286.449 41.0347 283.414 42.0777L282.652 42.3863C279.598 43.3472 277.254 41.6714 276.371 39.7144C275.324 37.398 276.184 34.6597 278.355 33.3433L279.707 32.7886L279.641 32.8081L279.711 32.7847C284.871 30.898 303.742 25.2339 327.121 25.5034C362.07 25.8706 390.937 39.3511 410.602 64.4761C419.906 76.3667 419.926 103.761 410.66 139.632C401.215 176.203 383.441 215.511 361.902 247.472C360.934 248.914 359.348 249.687 357.734 249.687ZM360.121 281.808C352.137 281.808 344.98 280.687 340.695 278.117C336.289 275.48 335.449 271.89 335.34 269.988C334.137 248.878 345.785 245.203 351.727 243.527C350.898 242.277 349.719 240.804 348.504 239.285C345.039 234.957 340.297 229.027 336.641 220.16C336.07 218.777 334.273 215.554 332.195 211.828C320.934 191.636 297.504 149.617 312.555 128.097C319.523 118.14 333.391 114.222 353.828 116.41C347.816 98.0933 319.184 40.7925 251.254 39.6792C230.82 39.3355 214.062 45.6206 201.473 58.3316C173.281 86.8042 174.305 138.32 174.316 138.832C174.391 141.605 172.199 143.91 169.43 143.98C166.656 144.066 164.352 141.867 164.281 139.093C164.219 136.808 163.164 82.7495 194.34 51.2652C208.93 36.5308 228.133 29.2573 251.418 29.6363C294.887 30.3511 322.859 52.4448 338.676 70.8589C355.91 90.9214 364.363 113.054 365.059 120.437C365.578 125.929 361.637 127.031 360.84 127.191L359.031 127.234C338.973 124.023 326.105 126.25 320.785 133.855C309.336 150.214 331.5 189.96 340.965 206.937C343.383 211.265 345.125 214.394 345.922 216.328C349.031 223.867 353.086 228.933 356.344 233.003C359.207 236.585 361.691 239.687 362.582 243.335C362.992 244.058 368.844 252.707 403.551 245.542C412.25 243.75 417.465 245.285 419.059 250.105C422.195 259.593 404.598 270.656 394.855 275.183C386.113 279.242 372.18 281.808 360.121 281.808ZM345.352 269.16C346.449 270.273 351.957 272.187 363.367 271.699C373.508 271.261 384.207 269.054 390.629 266.078C398.84 262.265 404.316 258.003 407.156 255.093L405.578 255.382C383.387 259.964 367.691 259.355 358.93 253.566C358.301 253.156 357.742 252.726 357.23 252.304C356.281 252.679 355.402 252.925 354.777 253.101C349.805 254.496 344.664 255.937 345.352 269.16ZM202.004 297.203C196.492 297.203 190.691 296.457 184.766 294.968C178.629 293.433 168.277 288.812 168.437 281.222C168.613 272.703 181 270.148 185.668 269.187C202.512 265.718 203.609 264.328 208.875 257.644C210.41 255.695 212.32 253.269 214.922 250.359C218.789 246.035 223.016 243.839 227.484 243.839C230.594 243.839 233.148 244.898 234.832 245.593C240.207 247.82 244.691 253.203 246.535 259.648C248.199 265.46 247.406 271.054 244.301 275.398C234.113 289.667 219.488 297.203 202.004 297.203ZM179.281 281.656C180.797 282.824 183.828 284.386 187.199 285.234C192.332 286.515 197.309 287.167 202.004 287.167C216.309 287.167 227.789 281.242 236.133 269.566C237.871 267.128 237.352 264.039 236.887 262.41C235.91 259.003 233.488 255.906 230.992 254.867C229.637 254.304 228.516 253.875 227.484 253.875C226.93 253.875 225.246 253.875 222.406 257.05C220.008 259.73 218.285 261.917 216.758 263.851C210.203 272.175 207.199 275 187.691 279.019C182.934 280.003 180.492 280.996 179.281 281.656ZM217.883 258.5C215.445 258.5 213.309 256.722 212.926 254.242C212.797 253.41 212.715 252.57 212.676 251.726C199.887 251.484 187.551 246 178.187 236.226C166.348 223.871 160.957 206.753 163.402 189.265C166.059 170.273 165.066 153.507 164.531 144.5C164.383 141.996 164.277 140.187 164.285 138.933C164.293 137.347 164.324 133.132 178.406 125.996C183.414 123.457 193.457 119.027 204.426 117.89C222.605 116.015 234.586 124.109 238.172 140.687C247.852 185.453 238.937 205.253 232.43 219.71C231.215 222.398 230.07 224.945 229.156 227.406L228.348 229.582C224.91 238.8 221.937 246.765 222.852 252.718C223.269 255.46 221.391 258.019 218.652 258.445L217.883 258.5ZM174.355 140.32L174.555 143.906C175.109 153.261 176.141 170.675 173.344 190.66C171.328 205.082 175.734 219.164 185.434 229.285C193.098 237.285 203.191 241.699 213.562 241.699H213.777C214.941 236.804 216.867 231.64 218.941 226.074L219.746 223.914C220.781 221.132 221.992 218.441 223.273 215.593C229.539 201.671 237.336 184.343 228.355 142.808C226.574 134.585 222.262 129.824 215.172 128.253C200.609 125.035 178.91 135.988 174.355 140.32ZM204.652 138.191C204.402 139.964 207.906 144.703 212.469 145.335C217.027 145.972 220.93 142.269 221.176 140.496C221.422 138.718 217.922 136.765 213.355 136.128C208.797 135.492 204.894 136.414 204.652 138.191ZM213.519 147.085L212.238 146.996C209.406 146.601 206.543 144.816 204.586 142.218C203.898 141.308 202.773 139.535 202.996 137.957C203.316 135.64 206.137 134.257 210.547 134.257C211.535 134.257 212.559 134.332 213.594 134.472C216 134.808 218.238 135.503 219.891 136.425C222.754 138.027 222.965 139.808 222.836 140.734C222.48 143.285 218.41 147.085 213.519 147.085ZM206.316 138.488C206.461 139.582 209.168 143.195 212.699 143.683L213.516 143.742C216.773 143.742 219.211 141.175 219.496 140.335C219.195 139.765 217.102 138.339 213.125 137.793C212.246 137.668 211.375 137.605 210.543 137.605C207.996 137.601 206.633 138.175 206.316 138.488ZM343.508 134.57C343.754 136.347 340.258 141.085 335.691 141.718C331.129 142.351 327.227 138.652 326.977 136.875C326.734 135.101 330.234 133.144 334.797 132.511C339.359 131.871 343.258 132.8 343.508 134.57ZM334.641 142.625C330.246 142.625 326.461 139.207 326.148 136.992C325.789 134.332 330.168 132.308 334.684 131.683C335.676 131.542 336.66 131.472 337.609 131.472C341.504 131.472 344.082 132.617 344.34 134.457C344.508 135.652 343.594 137.492 342.016 139.148C340.977 140.242 338.789 142.136 335.812 142.546L334.641 142.625ZM337.605 133.144C336.734 133.144 335.828 133.21 334.91 133.335C330.371 133.964 327.672 135.789 327.801 136.765C327.953 137.835 330.848 140.953 334.637 140.953L335.57 140.886C338.047 140.539 339.906 138.925 340.793 137.992C342.184 136.527 342.738 135.152 342.672 134.679C342.59 134.066 340.918 133.144 337.605 133.144ZM350.082 236.476C349.121 236.476 348.152 236.203 347.293 235.628C344.988 234.082 344.371 230.968 345.914 228.664C356.602 212.699 354.644 196.414 352.754 180.671C351.945 173.96 351.113 167.027 351.332 160.367C351.551 153.519 352.418 147.871 353.262 142.402C354.258 135.929 355.199 129.808 354.809 122.55C354.656 119.785 356.781 117.421 359.551 117.265C362.328 117.117 364.684 119.242 364.836 122.011C365.281 130.308 364.215 137.23 363.184 143.929C362.387 149.097 361.562 154.441 361.363 160.687C361.172 166.582 361.926 172.843 362.723 179.468C364.738 196.214 367.016 215.195 354.258 234.246C353.289 235.691 351.699 236.476 350.082 236.476Z" fill="white"/>
<path d="M11.0781 403.062C15.3477 402.352 20.9297 401.742 28.043 401.742C36.7734 401.742 43.1758 403.773 47.2383 407.43C50.9961 410.68 53.2305 415.656 53.2305 421.754C53.2305 427.949 51.3984 432.824 47.9453 436.379C43.2734 441.355 35.6563 443.895 27.0234 443.895C24.3828 443.895 21.9453 443.793 19.918 443.285V470.711H11.0781V403.062ZM19.918 436.07C21.8477 436.578 24.2852 436.781 27.2305 436.781C37.8906 436.781 44.3945 431.602 44.3945 422.156C44.3945 413.117 37.9961 408.75 28.2461 408.75C24.3867 408.75 21.4414 409.055 19.918 409.461V436.07ZM106.754 445.719C106.754 463.898 94.1563 471.824 82.2734 471.824C68.9688 471.824 58.7109 462.074 58.7109 446.531C58.7109 430.078 69.4766 420.43 83.0859 420.43C97.207 420.426 106.754 430.687 106.754 445.719ZM67.7539 446.227C67.7539 456.992 73.9492 465.117 82.6836 465.117C91.2149 465.117 97.6094 457.094 97.6094 446.023C97.6094 437.695 93.4492 427.133 82.8828 427.133C72.3164 427.133 67.7539 436.883 67.7539 446.227ZM116.805 461.563C119.445 463.289 124.117 465.117 128.586 465.117C135.086 465.117 138.133 461.867 138.133 457.805C138.133 453.539 135.598 451.203 128.992 448.766C120.156 445.617 115.992 440.742 115.992 434.852C115.992 426.93 122.391 420.43 132.953 420.43C137.93 420.43 142.301 421.852 145.043 423.477L142.809 429.977C140.879 428.758 137.324 427.133 132.754 427.133C127.473 427.133 124.527 430.18 124.527 433.836C124.527 437.898 127.477 439.727 133.875 442.164C142.406 445.414 146.773 449.68 146.773 456.992C146.773 465.625 140.07 471.719 128.391 471.719C123.008 471.719 118.031 470.398 114.578 468.367L116.805 461.563ZM169.012 407.426V421.543H181.805V428.348H169.012V454.855C169.012 460.949 170.734 464.402 175.715 464.402C178.051 464.402 179.777 464.098 180.895 463.793L181.301 470.496C179.578 471.207 176.832 471.715 173.383 471.715C169.219 471.715 165.863 470.395 163.73 467.957C161.195 465.316 160.277 460.949 160.277 455.16V428.348H152.66V421.543H160.277V409.762L169.012 407.426ZM233.605 421.547C233.398 425.102 233.199 429.062 233.199 435.055V463.594C233.199 474.867 230.965 481.773 226.191 486.043C221.418 490.512 214.512 491.934 208.316 491.934C202.426 491.934 195.926 490.512 191.961 487.871L194.195 481.066C197.445 483.098 202.523 484.926 208.617 484.926C217.758 484.926 224.461 480.152 224.461 467.762V462.277H224.258C221.516 466.848 216.234 470.504 208.617 470.504C196.43 470.504 187.695 460.145 187.695 446.531C187.695 429.875 198.563 420.43 209.836 420.43C218.371 420.43 223.043 424.898 225.176 428.961H225.379L225.785 421.547H233.605ZM224.363 440.945C224.363 439.422 224.262 438.102 223.855 436.883C222.23 431.703 217.863 427.438 211.363 427.438C202.828 427.438 196.738 434.648 196.738 446.023C196.738 455.672 201.613 463.695 211.262 463.695C216.746 463.695 221.723 460.242 223.652 454.555C224.16 453.031 224.367 451.305 224.367 449.781L224.363 440.945ZM247.414 436.883C247.414 431.094 247.313 426.117 247.008 421.547H254.832L255.133 431.195H255.539C257.773 424.594 263.156 420.43 269.148 420.43C270.164 420.43 270.871 420.531 271.684 420.734V429.164C270.773 428.961 269.856 428.859 268.641 428.859C262.344 428.859 257.871 433.633 256.656 440.336C256.453 441.555 256.25 442.977 256.25 444.5V470.703H247.414V436.883ZM284.59 447.75C284.793 459.836 292.508 464.812 301.445 464.812C307.848 464.812 311.703 463.695 315.055 462.273L316.578 468.672C313.43 470.094 308.047 471.719 300.227 471.719C285.094 471.719 276.055 461.766 276.055 446.937C276.055 432.109 284.789 420.426 299.109 420.426C315.156 420.426 319.422 434.543 319.422 443.582C319.422 445.41 319.219 446.832 319.117 447.746L284.59 447.75ZM310.793 441.352C310.891 435.664 308.453 426.828 298.402 426.828C289.363 426.828 285.402 435.156 284.688 441.352H310.793Z" fill="black"/>
<path d="M329.574 459.937C333.535 462.375 339.324 464.406 345.418 464.406C354.457 464.406 359.738 459.633 359.738 452.727C359.738 446.328 356.082 442.672 346.84 439.117C335.668 435.156 328.762 429.367 328.762 419.719C328.762 409.055 337.598 401.133 350.902 401.133C357.91 401.133 362.988 402.758 366.035 404.484L363.598 411.695C361.363 410.477 356.793 408.445 350.598 408.445C341.254 408.445 337.699 414.031 337.699 418.703C337.699 425.102 341.859 428.25 351.309 431.906C362.887 436.379 368.777 441.961 368.777 452.016C368.777 462.578 360.957 471.719 344.809 471.719C338.207 471.719 330.996 469.789 327.336 467.352L329.574 459.937ZM437.332 480.758C428.09 478.32 419.051 475.578 411.129 472.836C409.707 472.328 408.285 471.82 406.965 471.82C390.715 471.211 376.801 459.227 376.801 437.187C376.801 415.25 390.207 401.133 408.691 401.133C427.277 401.133 439.367 415.555 439.367 435.766C439.367 453.336 431.242 464.609 419.867 468.57V468.977C426.672 470.703 434.086 472.328 439.875 473.344L437.332 480.758ZM430.02 436.172C430.02 422.461 422.914 408.34 408.387 408.34C393.457 408.34 386.145 422.152 386.246 436.984C386.145 451.508 394.168 464.609 407.98 464.609C422.102 464.609 430.02 451.813 430.02 436.172ZM450.836 402.25H459.676V463.289H488.926V470.703H450.836V402.25Z" fill="#336791"/>
</svg>
