<svg width="500" height="500" viewBox="0 0 500 500" fill="none" xmlns="http://www.w3.org/2000/svg">
<path d="M249.998 46.8066C200.529 46.8087 152.674 64.4132 114.997 96.4701C77.3202 128.527 52.2792 172.945 44.3549 221.775C36.4306 270.605 46.14 320.662 71.7459 362.989C97.3517 405.316 137.183 437.15 184.113 452.796C194.53 454.619 198.436 448.37 198.436 442.9C198.436 437.952 198.175 421.546 198.175 404.098C145.831 413.734 132.29 391.339 128.123 379.62C123.5 368.222 116.17 358.122 106.769 350.192C99.4771 346.286 89.0605 336.65 106.508 336.39C113.17 337.113 119.56 339.432 125.136 343.149C130.712 346.866 135.31 351.872 138.54 357.744C141.389 362.863 145.22 367.369 149.814 371.004C154.408 374.64 159.675 377.333 165.311 378.93C170.948 380.526 176.844 380.995 182.662 380.309C188.48 379.623 194.106 377.795 199.216 374.931C200.118 364.34 204.838 354.438 212.498 347.068C166.144 341.859 117.706 323.89 117.706 244.203C117.414 223.498 125.054 203.465 139.06 188.214C132.691 170.218 133.437 150.469 141.144 133.005C141.144 133.005 158.591 127.536 198.435 154.359C232.525 144.984 268.513 144.984 302.602 154.359C342.445 127.276 359.894 133.005 359.894 133.005C367.602 150.469 368.347 170.218 361.977 188.214C376.026 203.439 383.673 223.489 383.331 244.203C383.331 324.15 334.633 341.859 288.279 347.068C293.251 352.107 297.08 358.157 299.507 364.807C301.933 371.458 302.9 378.552 302.342 385.609C302.342 413.474 302.081 435.869 302.081 442.901C302.081 448.37 305.987 454.88 316.404 452.797C363.251 437.023 402.968 405.114 428.465 362.766C453.962 320.418 463.579 270.386 455.6 221.603C447.62 172.82 422.564 128.46 384.904 96.4423C347.243 64.4244 299.429 46.8324 249.998 46.8066Z" fill="black"/>
</svg>
