<svg width="500" height="500" viewBox="0 0 500 500" fill="none" xmlns="http://www.w3.org/2000/svg">
<g clip-path="url(#clip0_5824_25542)">
<path d="M166.669 500.001C212.669 500.001 250.003 462.667 250.003 416.667V333.334H166.669C120.669 333.334 83.3359 370.667 83.3359 416.667C83.3359 462.667 120.669 500.001 166.669 500.001Z" fill="#0ACF83"/>
<path d="M83.3359 249.999C83.3359 203.999 120.669 166.666 166.669 166.666H250.003V333.333H166.669C120.669 333.333 83.3359 295.999 83.3359 249.999Z" fill="#A259FF"/>
<path d="M83.3359 83.3333C83.3359 37.3333 120.669 0 166.669 0H250.003V166.667H166.669C120.669 166.667 83.3359 129.333 83.3359 83.3333Z" fill="#F24E1E"/>
<path d="M250 0H333.333C379.333 0 416.667 37.3333 416.667 83.3333C416.667 129.333 379.333 166.667 333.333 166.667H250V0Z" fill="#FF7262"/>
<path d="M416.667 249.999C416.667 295.999 379.333 333.333 333.333 333.333C287.333 333.333 250 295.999 250 249.999C250 203.999 287.333 166.666 333.333 166.666C379.333 166.666 416.667 203.999 416.667 249.999Z" fill="#1ABCFE"/>
</g>
<defs>
<clipPath id="clip0_5824_25542">
<rect width="500" height="500" fill="white"/>
</clipPath>
</defs>
</svg>
