<svg width="500" height="500" viewBox="0 0 500 500" fill="none" xmlns="http://www.w3.org/2000/svg">
<g clip-path="url(#clip0_5824_25073)">
<path d="M0 0H500V500H0V0Z" fill="#F7DF1E"/>
<path d="M131.471 417.836L169.732 394.68C177.115 407.768 183.83 418.842 199.937 418.842C215.377 418.842 225.113 412.803 225.113 389.311V229.549H272.1V389.975C272.1 438.641 243.572 460.793 201.951 460.793C164.363 460.793 142.545 441.326 131.469 417.832M297.621 412.801L335.879 390.65C345.951 407.098 359.041 419.18 382.197 419.18C401.668 419.18 414.082 409.445 414.082 396.02C414.082 379.91 401.328 374.203 379.848 364.809L368.104 359.77C334.203 345.342 311.717 327.217 311.717 288.955C311.717 253.713 338.566 226.861 380.521 226.861C410.393 226.861 431.873 237.268 447.311 264.453L410.725 287.949C402.668 273.518 393.945 267.812 380.52 267.812C366.758 267.812 358.031 276.539 358.031 287.949C358.031 302.045 366.758 307.754 386.895 316.48L398.641 321.514C438.582 338.633 461.068 356.084 461.068 395.35C461.068 437.643 427.842 460.799 383.203 460.799C339.572 460.799 311.379 439.99 297.619 412.803" fill="black"/>
</g>
<defs>
<clipPath id="clip0_5824_25073">
<rect width="500" height="500" fill="white"/>
</clipPath>
</defs>
</svg>
