<svg width="500" height="500" viewBox="0 0 500 500" fill="none" xmlns="http://www.w3.org/2000/svg">
<path fill-rule="evenodd" clip-rule="evenodd" d="M289.775 8.29492C286.355 8.29492 283.18 9.05343 280.249 10.0647C286.477 14.3628 289.897 20.0514 291.606 26.4985C291.729 27.3834 291.973 28.0155 292.095 28.9004C292.217 29.6589 292.339 30.4173 292.339 31.1758C292.828 42.3002 289.53 43.6908 287.21 50.2643C283.669 58.7341 284.646 67.8358 288.92 75.1679C289.286 76.0527 289.775 77.064 290.385 77.9489C285.745 45.9662 311.511 41.1625 316.274 31.1758C316.64 22.4533 309.679 16.6382 304.184 12.593C298.933 9.30624 294.171 8.29492 289.775 8.29492ZM328.607 15.5005C328.119 18.408 328.485 17.6495 328.363 19.1665C328.241 20.1778 328.241 21.442 328.119 22.4533C327.875 23.4646 327.631 24.4759 327.264 25.4872C327.02 26.4985 326.654 27.5098 326.288 28.5211C325.799 29.5325 325.433 30.4173 324.944 31.4286C324.578 31.9345 324.334 32.4399 323.967 32.9456C323.723 33.3249 323.479 33.7041 323.235 34.0833C322.624 34.9683 322.013 35.8531 321.403 36.6116C320.67 37.3701 320.06 38.255 319.205 38.8871V39.0137C318.472 39.6457 317.739 40.4042 316.885 41.0363C314.32 43.0589 311.389 44.5759 308.703 46.4721C307.848 47.1041 306.993 47.6098 306.261 48.3683C305.406 49.0003 304.673 49.6324 303.94 50.3909C303.085 51.1494 302.475 51.9079 301.742 52.7928C301.132 53.5513 300.399 54.4361 299.911 55.3211C299.3 56.2059 298.689 57.0908 298.201 57.9757C297.712 58.987 297.346 59.8719 296.858 60.8832C296.491 61.8945 296.125 62.7794 295.881 63.7907C295.514 64.9285 295.27 65.9398 295.026 66.9511C294.904 67.457 294.904 68.0888 294.782 68.5945C294.659 69.1003 294.659 69.6058 294.538 70.1115C294.538 71.1228 294.416 72.2605 294.416 73.2718C294.416 74.0303 294.416 74.7888 294.538 75.5473C294.538 76.5586 294.66 77.5698 294.904 78.7076C295.026 79.7189 295.27 80.7302 295.515 81.7416C295.881 82.7528 296.125 83.7641 296.492 84.7754C296.736 85.4076 297.102 86.0396 297.346 86.5452L269.26 75.2944C264.497 73.9038 259.857 72.6398 255.094 71.502C252.53 70.87 249.966 70.2379 247.401 69.6058C240.074 68.0888 232.625 66.9511 225.176 66.1927C224.932 66.1927 224.81 66.0661 224.566 66.0661C217.239 65.3076 210.034 64.9284 202.707 64.9284C197.334 64.9284 191.961 65.181 186.71 65.5604C179.261 66.0663 171.811 67.0774 164.362 68.3415C162.531 68.5941 160.699 68.9736 158.867 69.3529C155.082 70.1113 151.418 70.9962 147.877 71.8811C146.045 72.387 144.213 72.8924 142.382 73.398C140.55 74.1565 138.84 75.0415 137.131 75.7999C135.787 76.432 134.444 77.0641 133.101 77.6961C132.857 77.8227 132.612 77.8227 132.49 77.9488C131.269 78.5808 130.17 79.0865 129.071 79.7186C128.705 79.8452 128.46 79.9712 128.216 80.0978C126.873 80.7299 125.53 81.4883 124.431 82.1204C123.576 82.4997 122.721 83.0053 121.988 83.3846C121.622 83.6372 121.133 83.8904 120.889 84.0166C119.79 84.6487 118.691 85.2807 117.714 85.9129C116.615 86.5449 115.638 87.177 114.783 87.809C113.929 88.4411 113.074 88.9467 112.341 89.5788C112.219 89.7054 112.097 89.7054 111.975 89.8314C111.242 90.3373 110.387 90.9692 109.655 91.6013C109.655 91.6013 109.532 91.7279 109.411 91.8539C108.8 92.3598 108.189 92.8652 107.579 93.3708C107.335 93.4974 107.09 93.7501 106.846 93.8767C106.235 94.3826 105.625 95.0144 105.014 95.5201C104.892 95.7727 104.648 95.8993 104.526 96.026C103.793 96.7844 103.06 97.4165 102.328 98.175C102.205 98.175 102.205 98.3016 102.084 98.4276C101.351 99.0597 100.618 99.8182 99.8855 100.577C99.7631 100.703 99.7631 100.829 99.6414 100.829C99.0309 101.461 98.4203 102.093 97.8097 102.852C97.5656 103.105 97.1991 103.358 96.9549 103.61C96.3443 104.369 95.6116 105.127 94.8789 105.886C94.7566 106.138 94.5126 106.265 94.3903 106.518C93.4134 107.529 92.5585 108.541 91.5816 109.552C91.4593 109.678 91.3376 109.804 91.2153 109.931C89.2614 112.08 87.1854 114.229 84.9874 116.125C82.7893 118.148 80.4691 120.044 78.1489 121.688C75.7065 123.457 73.3864 124.974 70.8219 126.491C68.3796 127.882 65.8152 129.146 63.1286 130.284C60.5642 131.421 57.8777 132.433 55.1911 133.318C50.0622 134.455 44.8112 136.604 40.293 136.984C39.3161 136.984 38.217 137.236 37.2401 137.363C36.141 137.615 35.1641 137.869 34.1872 138.121C33.2103 138.501 32.2333 138.88 31.2564 139.259C30.2795 139.638 29.3026 140.144 28.3257 140.65C27.4708 141.282 26.4939 141.787 25.6391 142.419C24.7843 143.051 23.9295 143.81 23.1968 144.568C22.342 145.201 21.4872 146.085 20.7545 146.844C20.0218 147.729 19.2891 148.487 18.6785 149.372C18.0679 150.383 17.3352 151.268 16.8467 152.28C16.2362 153.165 15.6256 154.176 15.1371 155.187C14.6485 156.325 14.1602 157.336 13.7939 158.474C13.4275 159.485 13.0612 160.623 12.6948 161.761C12.4508 162.772 12.2062 163.783 12.0843 164.795C12.0843 164.921 11.962 165.047 11.962 165.174C11.7179 166.312 11.7179 167.829 11.5956 168.587C11.4733 169.472 11.3516 170.23 11.3516 171.115C11.3516 171.621 11.3516 172.253 11.4739 172.759C11.5962 173.644 11.7179 174.402 11.9625 175.161C12.2066 175.919 12.4512 176.678 12.8173 177.436V177.563C13.1837 178.321 13.6721 179.08 14.1606 179.838C14.6492 180.597 15.1375 181.355 15.7481 182.114C16.3587 182.746 17.0914 183.504 17.8241 184.136C18.5568 184.895 19.2895 185.527 20.1442 186.159C23.075 188.813 23.8077 189.698 27.5933 191.721C28.2039 192.1 28.8145 192.353 29.5472 192.732C29.6695 192.732 29.7912 192.859 29.9136 192.859C29.9136 193.112 29.9136 193.238 30.0359 193.491C30.1582 194.502 30.4022 195.514 30.6464 196.525C30.8905 197.663 31.2571 198.674 31.6234 199.559C31.9898 200.317 32.234 201.076 32.6003 201.834C32.7226 202.087 32.8444 202.34 32.9667 202.466C33.4553 203.478 33.9436 204.363 34.432 205.248C35.0426 206.132 35.6532 207.017 36.2638 207.902C36.8743 208.661 37.607 209.546 38.3397 210.304C39.0724 211.063 39.8051 211.695 40.66 212.453C40.66 212.453 40.7823 212.58 40.904 212.58C41.6367 213.212 42.3694 213.844 43.1021 214.35C43.9569 214.982 44.8117 215.487 45.7886 215.993C46.6435 216.499 47.6204 217.004 48.5973 217.384C49.33 217.763 50.1848 218.016 51.0396 218.268C51.1619 218.395 51.2837 218.395 51.5283 218.521C52.0169 218.648 52.6273 218.774 53.1157 218.9C52.7494 225.727 52.6271 232.174 53.6044 234.449C54.7034 236.978 60.0765 229.266 65.4496 220.417C64.7169 229.14 64.2284 239.379 65.4496 242.413C66.7929 245.574 74.1198 235.713 80.4699 224.842C167.05 204.11 246.059 266.053 254.363 353.531C252.775 339.878 236.534 332.294 229.085 334.19C225.421 343.544 219.193 355.554 209.18 363.012C210.035 354.669 209.669 346.073 207.959 337.729C205.272 349.359 200.021 360.231 192.816 369.586C181.215 370.47 169.614 364.655 163.509 355.933C163.02 355.554 162.898 354.795 162.532 354.29C162.165 353.405 161.799 352.52 161.555 351.635C161.188 350.75 160.944 349.865 160.822 348.98C160.7 348.095 160.7 347.21 160.7 346.199C160.7 345.567 160.7 344.935 160.7 344.303C160.822 343.418 161.066 342.533 161.31 341.648C161.554 340.763 161.799 339.878 162.165 338.993C162.654 338.109 163.02 337.224 163.63 336.339C165.706 330.271 165.706 325.341 161.921 322.433C161.188 321.927 160.455 321.548 159.601 321.169C159.112 321.043 158.502 320.79 158.013 320.663C157.647 320.537 157.403 320.411 157.036 320.284C156.181 320.031 155.327 319.778 154.472 319.652C153.617 319.399 152.762 319.273 151.907 319.273C151.053 319.146 150.076 319.02 149.221 319.02C148.61 319.02 148 319.147 147.389 319.147C146.412 319.147 145.557 319.273 144.703 319.526C143.848 319.653 142.993 319.778 142.138 320.032C141.283 320.284 140.428 320.538 139.574 320.917C138.719 321.296 137.986 321.675 137.131 322.054C136.399 322.434 135.666 322.939 134.811 323.318C106.358 342.533 123.332 387.537 142.749 400.557C135.422 401.948 127.973 403.591 125.897 405.235C125.774 405.361 125.653 405.487 125.653 405.487C130.904 408.774 136.399 411.555 142.138 413.957C149.954 416.612 158.258 419.014 161.921 420.025V420.151C172.057 422.3 182.314 423.059 192.694 422.427C246.791 418.508 291.12 375.907 299.179 319.779C299.423 320.917 299.668 321.928 299.912 323.066C300.278 325.341 300.767 327.743 301.011 330.145V330.272C301.255 331.409 301.377 332.547 301.499 333.558V334.064C301.622 335.202 301.744 336.34 301.744 337.351C301.866 338.741 301.988 340.132 301.988 341.523V343.545C301.988 344.177 302.11 344.936 302.11 345.568C302.11 346.326 301.988 347.085 301.988 347.843V349.613C301.988 350.498 301.865 351.256 301.865 352.141C301.865 352.647 301.865 353.153 301.743 353.785C301.743 354.67 301.621 355.554 301.621 356.566C301.498 356.945 301.498 357.324 301.498 357.704C301.376 358.715 301.254 359.6 301.132 360.611C301.132 360.99 301.132 361.37 301.01 361.749C300.887 363.013 300.643 364.151 300.521 365.415V365.542V365.668C300.277 366.806 300.032 368.07 299.788 369.208V369.587C299.544 370.725 299.3 371.862 299.056 373C299.056 373.127 298.933 373.379 298.933 373.506C298.689 374.644 298.445 375.781 298.078 376.919V377.298C297.712 378.562 297.346 379.7 297.102 380.838C296.979 380.964 296.979 381.091 296.979 381.091C296.613 382.355 296.247 383.619 295.88 384.883C295.392 386.147 295.025 387.285 294.537 388.549C294.048 389.813 293.682 391.077 293.194 392.215C292.705 393.479 292.217 394.617 291.728 395.881H291.606C291.117 397.019 290.629 398.283 290.018 399.421C289.896 399.8 289.774 400.053 289.652 400.305C289.53 400.432 289.53 400.558 289.408 400.685C281.47 417.245 269.747 431.782 255.093 443.16C254.116 443.792 253.14 444.55 252.163 445.309C251.919 445.561 251.552 445.688 251.308 445.941C250.453 446.573 249.598 447.205 248.621 447.837L248.988 448.596H249.11C250.819 448.343 252.529 448.09 254.239 447.837H254.361C257.536 447.331 260.711 446.699 263.886 446.067C264.741 445.94 265.718 445.688 266.573 445.435C267.183 445.308 267.672 445.183 268.282 445.056C269.137 444.929 269.992 444.677 270.847 444.55C271.579 444.297 272.312 444.171 273.045 443.918C285.256 440.884 297.102 436.712 308.458 431.782C289.042 459.214 263.031 481.336 232.624 495.874C246.668 494.863 260.711 492.461 274.266 488.416C323.479 473.372 364.876 439.114 389.665 392.973C384.658 422.175 373.424 449.986 356.816 474.257C368.661 466.167 379.53 456.812 389.421 446.193C416.775 416.613 434.726 379.068 440.832 338.742C444.984 358.715 446.205 379.321 444.373 399.673C532.541 272.374 451.7 140.398 417.874 105.635C417.752 105.382 417.63 105.255 417.63 105.003C417.508 105.129 417.508 105.129 417.508 105.255C417.508 105.129 417.508 105.129 417.385 105.003C417.385 106.52 417.263 108.036 417.141 109.553C416.775 112.461 416.409 115.242 415.92 118.023C415.309 120.804 414.577 123.585 413.844 126.367C412.989 129.021 412.012 131.802 410.913 134.457C409.814 136.985 408.593 139.64 407.25 142.168C405.907 144.57 404.441 147.098 402.854 149.374C401.266 151.776 399.557 154.051 397.847 156.2C396.015 158.476 394.061 160.498 392.107 162.521C390.886 163.659 389.787 164.67 388.566 165.681C387.589 166.566 386.734 167.325 385.757 168.209C383.559 169.979 381.361 171.623 378.919 173.14C376.599 174.657 374.157 176.174 371.714 177.438C369.15 178.702 366.585 179.84 364.021 180.977C361.456 181.989 358.77 182.873 356.083 183.632C353.397 184.39 350.588 185.023 347.902 185.528C345.093 186.034 342.284 186.287 339.598 186.539C337.644 186.666 335.69 186.792 333.736 186.792C330.927 186.792 328.119 186.539 325.432 186.286C322.624 186.034 319.815 185.654 317.128 185.022C314.32 184.516 311.633 183.758 308.947 182.873H308.824C311.511 182.62 314.197 182.367 316.884 181.862C319.693 181.356 322.379 180.724 325.066 179.966C327.752 179.207 330.439 178.322 333.003 177.311C335.69 176.3 338.254 175.035 340.697 173.771C343.261 172.507 345.581 171.117 348.024 169.6C350.344 167.956 352.664 166.313 354.862 164.543C357.06 162.773 359.136 160.877 361.09 158.854C363.166 156.958 364.998 154.809 366.829 152.66C368.661 150.385 370.371 148.109 371.958 145.834C372.202 145.455 372.447 144.949 372.691 144.57C373.912 142.547 375.133 140.524 376.232 138.502C377.576 135.974 378.797 133.445 379.896 130.791C380.995 128.136 381.972 125.481 382.827 122.7C383.681 120.045 384.292 117.264 384.903 114.483C385.391 111.576 385.879 108.795 386.124 106.013C386.368 103.106 386.612 100.198 386.612 97.4174C386.612 95.3947 386.49 93.3721 386.368 91.3495C386.124 88.442 385.758 85.6609 385.391 82.8798C384.903 79.9722 384.292 77.1912 383.56 74.41C382.705 71.7554 381.85 68.9742 380.873 66.3196C379.896 63.6649 378.675 61.0102 377.454 58.4819C376.111 55.9536 374.767 53.4253 373.302 51.0235C371.714 48.6217 370.127 46.3462 368.417 44.0707C366.586 41.9217 364.754 39.7727 362.8 37.6236C361.823 36.6123 360.724 35.4746 359.625 34.4633C354.13 30.0388 348.39 25.8671 342.651 22.0747C341.796 21.5689 341.063 21.1898 340.209 20.8106C336.179 18.1559 332.393 16.7646 328.607 15.5005Z" fill="#E0234E"/>
</svg>
